<svg xmlns="http://www.w3.org/2000/svg" viewBox="0 0 64 64" width="64" height="64"><style>
  .f { fill:#ffffff; stroke:#1a1a20; stroke-width:3; stroke-linejoin:round; stroke-linecap:round; }
  .l { fill:none; stroke:#1a1a20; stroke-width:3; stroke-linejoin:round; stroke-linecap:round; }
  .w { fill:none; stroke:#ffffff; stroke-width:5; stroke-linejoin:round; stroke-linecap:round; }
  .d { fill:#1a1a20; }
</style><path class="f" d="M20 26 C20 16 26 8 33 8 C41 8 46 16 45 26 C44 33 39 36 32 36 C25 36 20 33 20 26 Z"/><path class="f" d="M24 44 C24 40 28 38 33 38 C38 38 42 40 42 45 C42 52 38 57 33 57 C27 57 24 51 24 44 Z"/><circle class="f" cx="48" cy="16" r="4.5"/><circle class="f" cx="51" cy="26" r="4"/></svg>