<svg xmlns="http://www.w3.org/2000/svg" width="980" height="1020" viewBox="0 0 980 1020"><defs><linearGradient id="gm0" gradientUnits="userSpaceOnUse" x1="1088.2" y1="176.2" x2="475.0" y2="229.2"><stop offset="0" stop-color="#fff" stop-opacity="0"/><stop offset="0.45" stop-color="#fff" stop-opacity="0.25"/><stop offset="0.8" stop-color="#fff" stop-opacity="0.8"/><stop offset="1" stop-color="#fff" stop-opacity="1"/></linearGradient><mask id="m0" maskUnits="userSpaceOnUse" x="0" y="0" width="980" height="1020"><rect x="0" y="0" width="980" height="1020" fill="url(#gm0)"/></mask></defs><g mask="url(#m0)" opacity="0.95"><polygon points="1100.8,165.6 1089.9,153.0 1078.5,140.9 1066.7,129.2 1054.5,117.9 1041.8,107.0 1028.8,96.6 1015.4,86.7 1001.7,77.3 987.6,68.5 973.2,60.1 958.5,52.2 943.6,44.9 928.3,38.1 912.9,31.9 897.2,26.3 881.4,21.2 865.3,16.8 849.1,12.9 832.8,9.5 816.4,6.8 799.9,4.7 783.3,3.2 766.6,2.3 750.0,2.0 733.4,2.3 716.7,3.2 700.1,4.7 683.6,6.8 667.2,9.5 650.9,12.9 634.7,16.8 618.6,21.2 602.8,26.3 587.1,31.9 571.7,38.1 556.4,44.9 541.5,52.2 526.8,60.1 512.4,68.5 498.3,77.3 484.6,86.7 471.2,96.6 458.2,107.0 445.5,117.9 433.3,129.2 421.5,140.9 410.1,153.0 399.2,165.6 550.8,292.9 556.9,285.6 562.9,278.3 568.9,270.8 575.0,263.3 581.1,255.8 587.4,248.1 593.8,240.4 600.4,232.6 607.2,224.7 614.3,216.8 621.6,208.9 629.2,201.0 637.2,193.1 645.5,185.3 654.1,177.6 663.2,169.9 672.6,162.5 682.4,155.2 692.7,148.1 703.3,141.3 714.4,134.8 725.9,128.7 737.7,122.9 750.0,117.5 762.6,112.6 775.6,108.1 789.0,104.2 802.6,100.9 816.5,98.2 830.7,96.0 845.1,94.6 859.6,93.8 874.3,93.8 889.1,94.5 903.9,95.9 918.7,98.2 933.5,101.2 948.1,105.0 962.6,109.7 976.8,115.1 990.8,121.4 1004.4,128.4 1017.6,136.3 1030.4,144.9 1042.6,154.3 1054.3,164.5 1065.3,175.3 1075.6,186.8" fill="#d5dde4"/><polygon points="1100.8,165.6 1089.9,153.0 1078.5,140.9 1066.7,129.2 1054.5,117.9 1041.8,107.0 1028.8,96.6 1015.4,86.7 1001.7,77.3 987.6,68.5 973.2,60.1 958.5,52.2 943.6,44.9 928.3,38.1 912.9,31.9 897.2,26.3 881.4,21.2 865.3,16.8 849.1,12.9 832.8,9.5 816.4,6.8 799.9,4.7 783.3,3.2 766.6,2.3 750.0,2.0 733.4,2.3 716.7,3.2 700.1,4.7 683.6,6.8 667.2,9.5 650.9,12.9 634.7,16.8 618.6,21.2 602.8,26.3 587.1,31.9 571.7,38.1 556.4,44.9 541.5,52.2 526.8,60.1 512.4,68.5 498.3,77.3 484.6,86.7 471.2,96.6 458.2,107.0 445.5,117.9 433.3,129.2 421.5,140.9 410.1,153.0 399.2,165.6 462.9,219.1 471.7,208.7 480.9,198.6 490.3,188.7 499.9,179.0 509.8,169.5 520.0,160.3 530.5,151.3 541.2,142.5 552.2,134.1 563.5,125.9 575.1,118.0 587.0,110.5 599.2,103.2 611.6,96.4 624.3,89.8 637.3,83.7 650.6,78.0 664.1,72.6 677.9,67.8 691.9,63.3 706.1,59.4 720.6,55.9 735.2,52.9 750.0,50.5 765.0,48.6 780.1,47.3 795.3,46.5 810.6,46.3 826.0,46.8 841.4,47.8 856.8,49.4 872.2,51.7 887.6,54.7 902.9,58.2 918.1,62.4 933.1,67.3 948.0,72.8 962.7,79.0 977.1,85.8 991.2,93.2 1005.1,101.3 1018.6,110.0 1031.7,119.3 1044.4,129.2 1056.6,139.7 1068.3,150.8 1079.6,162.4 1090.2,174.5" fill="#ffffff"/></g><line x1="830.1" y1="6.0" x2="800.2" y2="1.7" stroke="#16181b" stroke-width="3.25" stroke-linecap="round" opacity="0.95"/><line x1="800.2" y1="1.7" x2="770.1" y2="-0.6" stroke="#16181b" stroke-width="3.40" stroke-linecap="round" opacity="0.95"/><line x1="770.1" y1="-0.6" x2="739.9" y2="-0.9" stroke="#16181b" stroke-width="3.55" stroke-linecap="round" opacity="0.95"/><line x1="739.9" y1="-0.9" x2="709.8" y2="0.8" stroke="#16181b" stroke-width="3.70" stroke-linecap="round" opacity="0.95"/><line x1="709.8" y1="0.8" x2="679.9" y2="4.4" stroke="#16181b" stroke-width="3.85" stroke-linecap="round" opacity="0.95"/><line x1="679.9" y1="4.4" x2="650.2" y2="9.9" stroke="#16181b" stroke-width="4.00" stroke-linecap="round" opacity="0.95"/><line x1="650.2" y1="9.9" x2="621.0" y2="17.4" stroke="#16181b" stroke-width="4.15" stroke-linecap="round" opacity="0.95"/><line x1="621.0" y1="17.4" x2="592.3" y2="26.8" stroke="#16181b" stroke-width="4.30" stroke-linecap="round" opacity="0.95"/><line x1="592.3" y1="26.8" x2="564.3" y2="38.0" stroke="#16181b" stroke-width="4.45" stroke-linecap="round" opacity="0.95"/><line x1="564.3" y1="38.0" x2="537.1" y2="51.1" stroke="#16181b" stroke-width="4.60" stroke-linecap="round" opacity="0.95"/><line x1="537.1" y1="51.1" x2="510.8" y2="65.9" stroke="#16181b" stroke-width="4.75" stroke-linecap="round" opacity="0.95"/><line x1="510.8" y1="65.9" x2="485.6" y2="82.4" stroke="#16181b" stroke-width="4.90" stroke-linecap="round" opacity="0.95"/><line x1="485.6" y1="82.4" x2="461.4" y2="100.5" stroke="#16181b" stroke-width="5.05" stroke-linecap="round" opacity="0.95"/><line x1="461.4" y1="100.5" x2="438.6" y2="120.1" stroke="#16181b" stroke-width="5.20" stroke-linecap="round" opacity="0.95"/><line x1="438.6" y1="120.1" x2="417.0" y2="141.2" stroke="#16181b" stroke-width="5.35" stroke-linecap="round" opacity="0.95"/><line x1="417.0" y1="141.2" x2="396.9" y2="163.7" stroke="#16181b" stroke-width="5.50" stroke-linecap="round" opacity="0.95"/><line x1="550.8" y1="292.9" x2="396.1" y2="163.0" stroke="#16181b" stroke-width="9" stroke-linecap="round" opacity="0.95"/><line x1="550.8" y1="292.9" x2="396.1" y2="163.0" stroke="#ffffff" stroke-width="4" stroke-linecap="round" opacity="0.95"/><polyline points="473.5,65.2 449.9,82.8 427.5,101.8 406.2,122.2 386.2,143.8 367.6,166.6 350.4,190.5 334.7,215.4 320.5,241.2 308.0,267.8 297.1,295.1" fill="none" stroke="#16181b" stroke-width="3" stroke-linecap="round" opacity="0.56"/><polyline points="552.3,-5.8 530.6,4.1 509.3,14.9 488.6,26.7 468.5,39.5 449.0,53.2 430.2,67.9 412.1,83.4 394.7,99.7 378.1,116.9 362.4,134.7" fill="none" stroke="#16181b" stroke-width="2.3" stroke-linecap="round" opacity="0.42"/><polyline points="648.9,-60.3 631.7,-56.6 614.6,-52.4 597.7,-47.6 581.0,-42.3 564.4,-36.4 548.0,-30.0 531.9,-23.0 516.0,-15.5 500.4,-7.5 485.0,1.0" fill="none" stroke="#16181b" stroke-width="1.6" stroke-linecap="round" opacity="0.28"/></svg>